<?xml version="1.0" encoding="utf-8"?>
<svg xmlns="http://www.w3.org/2000/svg" xmlns:xlink="http://www.w3.org/1999/xlink" width="600" height="400" viewBox="0 0 2400 1600">
<defs>
  <clipPath id="clip350">
    <rect x="0" y="0" width="2400" height="1600"/>
  </clipPath>
</defs>
<path clip-path="url(#clip350)" d="
M0 1600 L2400 1600 L2400 0 L0 0  Z
  " fill="#ffffff" fill-rule="evenodd" fill-opacity="1"/>
<defs>
  <clipPath id="clip351">
    <rect x="480" y="0" width="1681" height="1600"/>
  </clipPath>
</defs>
<path clip-path="url(#clip350)" d="
M219.38 1423.18 L2352.76 1423.18 L2352.76 47.2441 L219.38 47.2441  Z
  " fill="#ffffff" fill-rule="evenodd" fill-opacity="1"/>
<defs>
  <clipPath id="clip352">
    <rect x="219" y="47" width="2134" height="1377"/>
  </clipPath>
</defs>
<polyline clip-path="url(#clip352)" style="stroke:#000000; stroke-linecap:butt; stroke-linejoin:round; stroke-width:2; stroke-opacity:0.1; fill:none" points="
  503.383,1423.18 503.383,47.2441 
  "/>
<polyline clip-path="url(#clip352)" style="stroke:#000000; stroke-linecap:butt; stroke-linejoin:round; stroke-width:2; stroke-opacity:0.1; fill:none" points="
  950.632,1423.18 950.632,47.2441 
  "/>
<polyline clip-path="url(#clip352)" style="stroke:#000000; stroke-linecap:butt; stroke-linejoin:round; stroke-width:2; stroke-opacity:0.1; fill:none" points="
  1397.88,1423.18 1397.88,47.2441 
  "/>
<polyline clip-path="url(#clip352)" style="stroke:#000000; stroke-linecap:butt; stroke-linejoin:round; stroke-width:2; stroke-opacity:0.1; fill:none" points="
  1845.13,1423.18 1845.13,47.2441 
  "/>
<polyline clip-path="url(#clip352)" style="stroke:#000000; stroke-linecap:butt; stroke-linejoin:round; stroke-width:2; stroke-opacity:0.1; fill:none" points="
  2292.38,1423.18 2292.38,47.2441 
  "/>
<polyline clip-path="url(#clip350)" style="stroke:#000000; stroke-linecap:butt; stroke-linejoin:round; stroke-width:4; stroke-opacity:1; fill:none" points="
  219.38,1423.18 2352.76,1423.18 
  "/>
<polyline clip-path="url(#clip350)" style="stroke:#000000; stroke-linecap:butt; stroke-linejoin:round; stroke-width:4; stroke-opacity:1; fill:none" points="
  503.383,1423.18 503.383,1404.28 
  "/>
<polyline clip-path="url(#clip350)" style="stroke:#000000; stroke-linecap:butt; stroke-linejoin:round; stroke-width:4; stroke-opacity:1; fill:none" points="
  950.632,1423.18 950.632,1404.28 
  "/>
<polyline clip-path="url(#clip350)" style="stroke:#000000; stroke-linecap:butt; stroke-linejoin:round; stroke-width:4; stroke-opacity:1; fill:none" points="
  1397.88,1423.18 1397.88,1404.28 
  "/>
<polyline clip-path="url(#clip350)" style="stroke:#000000; stroke-linecap:butt; stroke-linejoin:round; stroke-width:4; stroke-opacity:1; fill:none" points="
  1845.13,1423.18 1845.13,1404.28 
  "/>
<polyline clip-path="url(#clip350)" style="stroke:#000000; stroke-linecap:butt; stroke-linejoin:round; stroke-width:4; stroke-opacity:1; fill:none" points="
  2292.38,1423.18 2292.38,1404.28 
  "/>
<path clip-path="url(#clip350)" d="M498.036 1481.64 L514.355 1481.64 L514.355 1485.58 L492.411 1485.58 L492.411 1481.64 Q495.073 1478.89 499.656 1474.26 Q504.263 1469.61 505.443 1468.27 Q507.689 1465.74 508.568 1464.01 Q509.471 1462.25 509.471 1460.56 Q509.471 1457.8 507.527 1456.07 Q505.605 1454.33 502.503 1454.33 Q500.304 1454.33 497.851 1455.09 Q495.42 1455.86 492.642 1457.41 L492.642 1452.69 Q495.466 1451.55 497.92 1450.97 Q500.374 1450.39 502.411 1450.39 Q507.781 1450.39 510.976 1453.08 Q514.17 1455.77 514.17 1460.26 Q514.17 1462.39 513.36 1464.31 Q512.573 1466.2 510.466 1468.8 Q509.888 1469.47 506.786 1472.69 Q503.684 1475.88 498.036 1481.64 Z" fill="#000000" fill-rule="evenodd" fill-opacity="1" /><path clip-path="url(#clip350)" d="M953.641 1455.09 L941.835 1473.54 L953.641 1473.54 L953.641 1455.09 M952.414 1451.02 L958.294 1451.02 L958.294 1473.54 L963.224 1473.54 L963.224 1477.43 L958.294 1477.43 L958.294 1485.58 L953.641 1485.58 L953.641 1477.43 L938.039 1477.43 L938.039 1472.92 L952.414 1451.02 Z" fill="#000000" fill-rule="evenodd" fill-opacity="1" /><path clip-path="url(#clip350)" d="M1398.29 1466.44 Q1395.14 1466.44 1393.29 1468.59 Q1391.46 1470.74 1391.46 1474.49 Q1391.46 1478.22 1393.29 1480.39 Q1395.14 1482.55 1398.29 1482.55 Q1401.43 1482.55 1403.26 1480.39 Q1405.11 1478.22 1405.11 1474.49 Q1405.11 1470.74 1403.26 1468.59 Q1401.43 1466.44 1398.29 1466.44 M1407.57 1451.78 L1407.57 1456.04 Q1405.81 1455.21 1404 1454.77 Q1402.22 1454.33 1400.46 1454.33 Q1395.83 1454.33 1393.38 1457.45 Q1390.95 1460.58 1390.6 1466.9 Q1391.97 1464.89 1394.03 1463.82 Q1396.09 1462.73 1398.56 1462.73 Q1403.77 1462.73 1406.78 1465.9 Q1409.81 1469.05 1409.81 1474.49 Q1409.81 1479.82 1406.66 1483.03 Q1403.52 1486.25 1398.29 1486.25 Q1392.29 1486.25 1389.12 1481.67 Q1385.95 1477.06 1385.95 1468.33 Q1385.95 1460.14 1389.84 1455.28 Q1393.73 1450.39 1400.28 1450.39 Q1402.04 1450.39 1403.82 1450.74 Q1405.62 1451.09 1407.57 1451.78 Z" fill="#000000" fill-rule="evenodd" fill-opacity="1" /><path clip-path="url(#clip350)" d="M1845.13 1469.17 Q1841.8 1469.17 1839.87 1470.95 Q1837.98 1472.73 1837.98 1475.86 Q1837.98 1478.98 1839.87 1480.77 Q1841.8 1482.55 1845.13 1482.55 Q1848.46 1482.55 1850.38 1480.77 Q1852.3 1478.96 1852.3 1475.86 Q1852.3 1472.73 1850.38 1470.95 Q1848.49 1469.17 1845.13 1469.17 M1840.45 1467.18 Q1837.44 1466.44 1835.75 1464.38 Q1834.09 1462.32 1834.09 1459.35 Q1834.09 1455.21 1837.03 1452.8 Q1839.99 1450.39 1845.13 1450.39 Q1850.29 1450.39 1853.23 1452.8 Q1856.17 1455.21 1856.17 1459.35 Q1856.17 1462.32 1854.48 1464.38 Q1852.81 1466.44 1849.83 1467.18 Q1853.21 1467.96 1855.08 1470.26 Q1856.98 1472.55 1856.98 1475.86 Q1856.98 1480.88 1853.9 1483.57 Q1850.85 1486.25 1845.13 1486.25 Q1839.41 1486.25 1836.33 1483.57 Q1833.28 1480.88 1833.28 1475.86 Q1833.28 1472.55 1835.18 1470.26 Q1837.07 1467.96 1840.45 1467.18 M1838.74 1459.79 Q1838.74 1462.48 1840.41 1463.98 Q1842.1 1465.49 1845.13 1465.49 Q1848.14 1465.49 1849.83 1463.98 Q1851.54 1462.48 1851.54 1459.79 Q1851.54 1457.11 1849.83 1455.6 Q1848.14 1454.1 1845.13 1454.1 Q1842.1 1454.1 1840.41 1455.6 Q1838.74 1457.11 1838.74 1459.79 Z" fill="#000000" fill-rule="evenodd" fill-opacity="1" /><path clip-path="url(#clip350)" d="M2267.06 1481.64 L2274.7 1481.64 L2274.7 1455.28 L2266.39 1456.95 L2266.39 1452.69 L2274.66 1451.02 L2279.33 1451.02 L2279.33 1481.64 L2286.97 1481.64 L2286.97 1485.58 L2267.06 1485.58 L2267.06 1481.64 Z" fill="#000000" fill-rule="evenodd" fill-opacity="1" /><path clip-path="url(#clip350)" d="M2306.42 1454.1 Q2302.81 1454.1 2300.98 1457.66 Q2299.17 1461.2 2299.17 1468.33 Q2299.17 1475.44 2300.98 1479.01 Q2302.81 1482.55 2306.42 1482.55 Q2310.05 1482.55 2311.86 1479.01 Q2313.69 1475.44 2313.69 1468.33 Q2313.69 1461.2 2311.86 1457.66 Q2310.05 1454.1 2306.42 1454.1 M2306.42 1450.39 Q2312.23 1450.39 2315.28 1455 Q2318.36 1459.58 2318.36 1468.33 Q2318.36 1477.06 2315.28 1481.67 Q2312.23 1486.25 2306.42 1486.25 Q2300.61 1486.25 2297.53 1481.67 Q2294.47 1477.06 2294.47 1468.33 Q2294.47 1459.58 2297.53 1455 Q2300.61 1450.39 2306.42 1450.39 Z" fill="#000000" fill-rule="evenodd" fill-opacity="1" /><path clip-path="url(#clip350)" d="M1174.08 1520.52 L1204.13 1520.52 L1204.13 1525.93 L1180.51 1525.93 L1180.51 1540 L1203.14 1540 L1203.14 1545.41 L1180.51 1545.41 L1180.51 1562.63 L1204.7 1562.63 L1204.7 1568.04 L1174.08 1568.04 L1174.08 1520.52 Z" fill="#000000" fill-rule="evenodd" fill-opacity="1" /><path clip-path="url(#clip350)" d="M1220.68 1562.7 L1220.68 1581.6 L1214.79 1581.6 L1214.79 1532.4 L1220.68 1532.4 L1220.68 1537.81 Q1222.52 1534.62 1225.32 1533.1 Q1228.16 1531.54 1232.07 1531.54 Q1238.56 1531.54 1242.61 1536.69 Q1246.68 1541.85 1246.68 1550.25 Q1246.68 1558.65 1242.61 1563.81 Q1238.56 1568.97 1232.07 1568.97 Q1228.16 1568.97 1225.32 1567.44 Q1222.52 1565.88 1220.68 1562.7 M1240.6 1550.25 Q1240.6 1543.79 1237.93 1540.13 Q1235.29 1536.44 1230.64 1536.44 Q1225.99 1536.44 1223.32 1540.13 Q1220.68 1543.79 1220.68 1550.25 Q1220.68 1556.71 1223.32 1560.4 Q1225.99 1564.07 1230.64 1564.07 Q1235.29 1564.07 1237.93 1560.4 Q1240.6 1556.71 1240.6 1550.25 Z" fill="#000000" fill-rule="evenodd" fill-opacity="1" /><path clip-path="url(#clip350)" d="M1270.2 1536.5 Q1265.49 1536.5 1262.75 1540.19 Q1260.02 1543.85 1260.02 1550.25 Q1260.02 1556.65 1262.72 1560.34 Q1265.46 1564 1270.2 1564 Q1274.88 1564 1277.62 1560.31 Q1280.35 1556.62 1280.35 1550.25 Q1280.35 1543.92 1277.62 1540.23 Q1274.88 1536.5 1270.2 1536.5 M1270.2 1531.54 Q1277.84 1531.54 1282.2 1536.5 Q1286.56 1541.47 1286.56 1550.25 Q1286.56 1559 1282.2 1564 Q1277.84 1568.97 1270.2 1568.97 Q1262.53 1568.97 1258.17 1564 Q1253.84 1559 1253.84 1550.25 Q1253.84 1541.47 1258.17 1536.5 Q1262.53 1531.54 1270.2 1531.54 Z" fill="#000000" fill-rule="evenodd" fill-opacity="1" /><path clip-path="url(#clip350)" d="M1321.92 1533.76 L1321.92 1539.24 Q1319.44 1537.87 1316.93 1537.2 Q1314.44 1536.5 1311.9 1536.5 Q1306.2 1536.5 1303.05 1540.13 Q1299.9 1543.73 1299.9 1550.25 Q1299.9 1556.78 1303.05 1560.4 Q1306.2 1564 1311.9 1564 Q1314.44 1564 1316.93 1563.33 Q1319.44 1562.63 1321.92 1561.26 L1321.92 1566.68 Q1319.47 1567.82 1316.83 1568.39 Q1314.22 1568.97 1311.26 1568.97 Q1303.21 1568.97 1298.47 1563.91 Q1293.72 1558.85 1293.72 1550.25 Q1293.72 1541.53 1298.5 1536.53 Q1303.3 1531.54 1311.64 1531.54 Q1314.35 1531.54 1316.93 1532.11 Q1319.5 1532.65 1321.92 1533.76 Z" fill="#000000" fill-rule="evenodd" fill-opacity="1" /><path clip-path="url(#clip350)" d="M1361.74 1546.53 L1361.74 1568.04 L1355.88 1568.04 L1355.88 1546.72 Q1355.88 1541.66 1353.91 1539.14 Q1351.94 1536.63 1347.99 1536.63 Q1343.25 1536.63 1340.51 1539.65 Q1337.77 1542.68 1337.77 1547.9 L1337.77 1568.04 L1331.89 1568.04 L1331.89 1518.52 L1337.77 1518.52 L1337.77 1537.93 Q1339.87 1534.72 1342.71 1533.13 Q1345.57 1531.54 1349.3 1531.54 Q1355.44 1531.54 1358.59 1535.36 Q1361.74 1539.14 1361.74 1546.53 Z" fill="#000000" fill-rule="evenodd" fill-opacity="1" /><path clip-path="url(#clip350)" d="M1396.15 1533.45 L1396.15 1538.98 Q1393.66 1537.71 1390.99 1537.07 Q1388.32 1536.44 1385.45 1536.44 Q1381.09 1536.44 1378.9 1537.77 Q1376.73 1539.11 1376.73 1541.79 Q1376.73 1543.82 1378.29 1545 Q1379.85 1546.15 1384.56 1547.2 L1386.57 1547.64 Q1392.81 1548.98 1395.41 1551.43 Q1398.06 1553.85 1398.06 1558.21 Q1398.06 1563.17 1394.11 1566.07 Q1390.2 1568.97 1383.32 1568.97 Q1380.46 1568.97 1377.34 1568.39 Q1374.25 1567.85 1370.81 1566.74 L1370.81 1560.69 Q1374.06 1562.38 1377.21 1563.24 Q1380.36 1564.07 1383.45 1564.07 Q1387.59 1564.07 1389.81 1562.66 Q1392.04 1561.23 1392.04 1558.65 Q1392.04 1556.27 1390.42 1554.99 Q1388.83 1553.72 1383.38 1552.54 L1381.35 1552.07 Q1375.9 1550.92 1373.49 1548.56 Q1371.07 1546.18 1371.07 1542.04 Q1371.07 1537.01 1374.63 1534.27 Q1378.2 1531.54 1384.75 1531.54 Q1388 1531.54 1390.86 1532.01 Q1393.73 1532.49 1396.15 1533.45 Z" fill="#000000" fill-rule="evenodd" fill-opacity="1" /><polyline clip-path="url(#clip352)" style="stroke:#000000; stroke-linecap:butt; stroke-linejoin:round; stroke-width:2; stroke-opacity:0.1; fill:none" points="
  219.38,1384.24 2352.76,1384.24 
  "/>
<polyline clip-path="url(#clip352)" style="stroke:#000000; stroke-linecap:butt; stroke-linejoin:round; stroke-width:2; stroke-opacity:0.1; fill:none" points="
  219.38,1059.73 2352.76,1059.73 
  "/>
<polyline clip-path="url(#clip352)" style="stroke:#000000; stroke-linecap:butt; stroke-linejoin:round; stroke-width:2; stroke-opacity:0.1; fill:none" points="
  219.38,735.212 2352.76,735.212 
  "/>
<polyline clip-path="url(#clip352)" style="stroke:#000000; stroke-linecap:butt; stroke-linejoin:round; stroke-width:2; stroke-opacity:0.1; fill:none" points="
  219.38,410.699 2352.76,410.699 
  "/>
<polyline clip-path="url(#clip352)" style="stroke:#000000; stroke-linecap:butt; stroke-linejoin:round; stroke-width:2; stroke-opacity:0.1; fill:none" points="
  219.38,86.1857 2352.76,86.1857 
  "/>
<polyline clip-path="url(#clip350)" style="stroke:#000000; stroke-linecap:butt; stroke-linejoin:round; stroke-width:4; stroke-opacity:1; fill:none" points="
  219.38,1423.18 219.38,47.2441 
  "/>
<polyline clip-path="url(#clip350)" style="stroke:#000000; stroke-linecap:butt; stroke-linejoin:round; stroke-width:4; stroke-opacity:1; fill:none" points="
  219.38,1384.24 238.278,1384.24 
  "/>
<polyline clip-path="url(#clip350)" style="stroke:#000000; stroke-linecap:butt; stroke-linejoin:round; stroke-width:4; stroke-opacity:1; fill:none" points="
  219.38,1059.73 238.278,1059.73 
  "/>
<polyline clip-path="url(#clip350)" style="stroke:#000000; stroke-linecap:butt; stroke-linejoin:round; stroke-width:4; stroke-opacity:1; fill:none" points="
  219.38,735.212 238.278,735.212 
  "/>
<polyline clip-path="url(#clip350)" style="stroke:#000000; stroke-linecap:butt; stroke-linejoin:round; stroke-width:4; stroke-opacity:1; fill:none" points="
  219.38,410.699 238.278,410.699 
  "/>
<polyline clip-path="url(#clip350)" style="stroke:#000000; stroke-linecap:butt; stroke-linejoin:round; stroke-width:4; stroke-opacity:1; fill:none" points="
  219.38,86.1857 238.278,86.1857 
  "/>
<path clip-path="url(#clip350)" d="M126.205 1370.04 Q122.593 1370.04 120.765 1373.6 Q118.959 1377.14 118.959 1384.27 Q118.959 1391.38 120.765 1394.94 Q122.593 1398.49 126.205 1398.49 Q129.839 1398.49 131.644 1394.94 Q133.473 1391.38 133.473 1384.27 Q133.473 1377.14 131.644 1373.6 Q129.839 1370.04 126.205 1370.04 M126.205 1366.33 Q132.015 1366.33 135.07 1370.94 Q138.149 1375.52 138.149 1384.27 Q138.149 1393 135.07 1397.61 Q132.015 1402.19 126.205 1402.19 Q120.394 1402.19 117.316 1397.61 Q114.26 1393 114.26 1384.27 Q114.26 1375.52 117.316 1370.94 Q120.394 1366.33 126.205 1366.33 Z" fill="#000000" fill-rule="evenodd" fill-opacity="1" /><path clip-path="url(#clip350)" d="M146.366 1395.64 L151.251 1395.64 L151.251 1401.52 L146.366 1401.52 L146.366 1395.64 Z" fill="#000000" fill-rule="evenodd" fill-opacity="1" /><path clip-path="url(#clip350)" d="M171.436 1370.04 Q167.825 1370.04 165.996 1373.6 Q164.19 1377.14 164.19 1384.27 Q164.19 1391.38 165.996 1394.94 Q167.825 1398.49 171.436 1398.49 Q175.07 1398.49 176.876 1394.94 Q178.704 1391.38 178.704 1384.27 Q178.704 1377.14 176.876 1373.6 Q175.07 1370.04 171.436 1370.04 M171.436 1366.33 Q177.246 1366.33 180.301 1370.94 Q183.38 1375.52 183.38 1384.27 Q183.38 1393 180.301 1397.61 Q177.246 1402.19 171.436 1402.19 Q165.626 1402.19 162.547 1397.61 Q159.491 1393 159.491 1384.27 Q159.491 1375.52 162.547 1370.94 Q165.626 1366.33 171.436 1366.33 Z" fill="#000000" fill-rule="evenodd" fill-opacity="1" /><path clip-path="url(#clip350)" d="M127.2 1045.52 Q123.589 1045.52 121.76 1049.09 Q119.955 1052.63 119.955 1059.76 Q119.955 1066.87 121.76 1070.43 Q123.589 1073.97 127.2 1073.97 Q130.834 1073.97 132.64 1070.43 Q134.468 1066.87 134.468 1059.76 Q134.468 1052.63 132.64 1049.09 Q130.834 1045.52 127.2 1045.52 M127.2 1041.82 Q133.01 1041.82 136.066 1046.43 Q139.144 1051.01 139.144 1059.76 Q139.144 1068.49 136.066 1073.09 Q133.01 1077.68 127.2 1077.68 Q121.39 1077.68 118.311 1073.09 Q115.256 1068.49 115.256 1059.76 Q115.256 1051.01 118.311 1046.43 Q121.39 1041.82 127.2 1041.82 Z" fill="#000000" fill-rule="evenodd" fill-opacity="1" /><path clip-path="url(#clip350)" d="M147.362 1071.13 L152.246 1071.13 L152.246 1077.01 L147.362 1077.01 L147.362 1071.13 Z" fill="#000000" fill-rule="evenodd" fill-opacity="1" /><path clip-path="url(#clip350)" d="M162.477 1042.45 L180.834 1042.45 L180.834 1046.38 L166.76 1046.38 L166.76 1054.85 Q167.778 1054.51 168.797 1054.34 Q169.815 1054.16 170.834 1054.16 Q176.621 1054.16 180.001 1057.33 Q183.38 1060.5 183.38 1065.92 Q183.38 1071.5 179.908 1074.6 Q176.436 1077.68 170.116 1077.68 Q167.94 1077.68 165.672 1077.31 Q163.427 1076.94 161.019 1076.19 L161.019 1071.5 Q163.102 1072.63 165.325 1073.19 Q167.547 1073.74 170.024 1073.74 Q174.028 1073.74 176.366 1071.63 Q178.704 1069.53 178.704 1065.92 Q178.704 1062.31 176.366 1060.2 Q174.028 1058.09 170.024 1058.09 Q168.149 1058.09 166.274 1058.51 Q164.422 1058.93 162.477 1059.81 L162.477 1042.45 Z" fill="#000000" fill-rule="evenodd" fill-opacity="1" /><path clip-path="url(#clip350)" d="M117.015 748.557 L124.654 748.557 L124.654 722.191 L116.343 723.858 L116.343 719.599 L124.607 717.932 L129.283 717.932 L129.283 748.557 L136.922 748.557 L136.922 752.492 L117.015 752.492 L117.015 748.557 Z" fill="#000000" fill-rule="evenodd" fill-opacity="1" /><path clip-path="url(#clip350)" d="M146.366 746.612 L151.251 746.612 L151.251 752.492 L146.366 752.492 L146.366 746.612 Z" fill="#000000" fill-rule="evenodd" fill-opacity="1" /><path clip-path="url(#clip350)" d="M171.436 721.011 Q167.825 721.011 165.996 724.575 Q164.19 728.117 164.19 735.247 Q164.19 742.353 165.996 745.918 Q167.825 749.46 171.436 749.46 Q175.07 749.46 176.876 745.918 Q178.704 742.353 178.704 735.247 Q178.704 728.117 176.876 724.575 Q175.07 721.011 171.436 721.011 M171.436 717.307 Q177.246 717.307 180.301 721.913 Q183.38 726.497 183.38 735.247 Q183.38 743.973 180.301 748.58 Q177.246 753.163 171.436 753.163 Q165.626 753.163 162.547 748.58 Q159.491 743.973 159.491 735.247 Q159.491 726.497 162.547 721.913 Q165.626 717.307 171.436 717.307 Z" fill="#000000" fill-rule="evenodd" fill-opacity="1" /><path clip-path="url(#clip350)" d="M118.01 424.044 L125.649 424.044 L125.649 397.678 L117.339 399.345 L117.339 395.085 L125.603 393.419 L130.279 393.419 L130.279 424.044 L137.917 424.044 L137.917 427.979 L118.01 427.979 L118.01 424.044 Z" fill="#000000" fill-rule="evenodd" fill-opacity="1" /><path clip-path="url(#clip350)" d="M147.362 422.099 L152.246 422.099 L152.246 427.979 L147.362 427.979 L147.362 422.099 Z" fill="#000000" fill-rule="evenodd" fill-opacity="1" /><path clip-path="url(#clip350)" d="M162.477 393.419 L180.834 393.419 L180.834 397.354 L166.76 397.354 L166.76 405.826 Q167.778 405.479 168.797 405.317 Q169.815 405.132 170.834 405.132 Q176.621 405.132 180.001 408.303 Q183.38 411.474 183.38 416.891 Q183.38 422.47 179.908 425.571 Q176.436 428.65 170.116 428.65 Q167.94 428.65 165.672 428.28 Q163.427 427.909 161.019 427.169 L161.019 422.47 Q163.102 423.604 165.325 424.159 Q167.547 424.715 170.024 424.715 Q174.028 424.715 176.366 422.608 Q178.704 420.502 178.704 416.891 Q178.704 413.28 176.366 411.173 Q174.028 409.067 170.024 409.067 Q168.149 409.067 166.274 409.484 Q164.422 409.9 162.477 410.78 L162.477 393.419 Z" fill="#000000" fill-rule="evenodd" fill-opacity="1" /><path clip-path="url(#clip350)" d="M120.232 99.5305 L136.552 99.5305 L136.552 103.466 L114.607 103.466 L114.607 99.5305 Q117.269 96.7759 121.853 92.1463 Q126.459 87.4935 127.64 86.151 Q129.885 83.6278 130.765 81.8917 Q131.667 80.1325 131.667 78.4427 Q131.667 75.688 129.723 73.9519 Q127.802 72.2158 124.7 72.2158 Q122.501 72.2158 120.047 72.9797 Q117.617 73.7436 114.839 75.2945 L114.839 70.5723 Q117.663 69.4381 120.117 68.8594 Q122.57 68.2807 124.607 68.2807 Q129.978 68.2807 133.172 70.9658 Q136.367 73.651 136.367 78.1417 Q136.367 80.2714 135.556 82.1926 Q134.769 84.0908 132.663 86.6834 Q132.084 87.3546 128.982 90.5722 Q125.88 93.7667 120.232 99.5305 Z" fill="#000000" fill-rule="evenodd" fill-opacity="1" /><path clip-path="url(#clip350)" d="M146.366 97.5861 L151.251 97.5861 L151.251 103.466 L146.366 103.466 L146.366 97.5861 Z" fill="#000000" fill-rule="evenodd" fill-opacity="1" /><path clip-path="url(#clip350)" d="M171.436 71.9844 Q167.825 71.9844 165.996 75.5492 Q164.19 79.0908 164.19 86.2204 Q164.19 93.3268 165.996 96.8916 Q167.825 100.433 171.436 100.433 Q175.07 100.433 176.876 96.8916 Q178.704 93.3268 178.704 86.2204 Q178.704 79.0908 176.876 75.5492 Q175.07 71.9844 171.436 71.9844 M171.436 68.2807 Q177.246 68.2807 180.301 72.8871 Q183.38 77.4704 183.38 86.2204 Q183.38 94.9472 180.301 99.5537 Q177.246 104.137 171.436 104.137 Q165.626 104.137 162.547 99.5537 Q159.491 94.9472 159.491 86.2204 Q159.491 77.4704 162.547 72.8871 Q165.626 68.2807 171.436 68.2807 Z" fill="#000000" fill-rule="evenodd" fill-opacity="1" /><path clip-path="url(#clip350)" d="M16.4842 1045.3 L16.4842 1036.64 L56.238 1015.57 L16.4842 1015.57 L16.4842 1009.34 L64.0042 1009.34 L64.0042 1017.99 L24.2503 1039.06 L64.0042 1039.06 L64.0042 1045.3 L16.4842 1045.3 Z" fill="#000000" fill-rule="evenodd" fill-opacity="1" /><path clip-path="url(#clip350)" d="M49.9359 997.4 L28.3562 997.4 L28.3562 991.543 L49.7131 991.543 Q54.7739 991.543 57.3202 989.57 Q59.8346 987.596 59.8346 983.65 Q59.8346 978.907 56.8109 976.17 Q53.7872 973.401 48.5673 973.401 L28.3562 973.401 L28.3562 967.544 L64.0042 967.544 L64.0042 973.401 L58.5296 973.401 Q61.7762 975.533 63.3676 978.366 Q64.9272 981.167 64.9272 984.891 Q64.9272 991.034 61.1078 994.217 Q57.2883 997.4 49.9359 997.4 M27.4968 982.663 L27.4968 982.663 Z" fill="#000000" fill-rule="evenodd" fill-opacity="1" /><path clip-path="url(#clip350)" d="M35.1993 927.727 Q31.2526 925.531 29.3747 922.475 Q27.4968 919.42 27.4968 915.282 Q27.4968 909.712 31.4117 906.688 Q35.2948 903.664 42.4881 903.664 L64.0042 903.664 L64.0042 909.553 L42.679 909.553 Q37.5546 909.553 35.072 911.367 Q32.5894 913.181 32.5894 916.905 Q32.5894 921.457 35.6131 924.098 Q38.6368 926.74 43.8567 926.74 L64.0042 926.74 L64.0042 932.628 L42.679 932.628 Q37.5228 932.628 35.072 934.443 Q32.5894 936.257 32.5894 940.044 Q32.5894 944.532 35.6449 947.174 Q38.6686 949.816 43.8567 949.816 L64.0042 949.816 L64.0042 955.704 L28.3562 955.704 L28.3562 949.816 L33.8944 949.816 Q30.616 947.811 29.0564 945.01 Q27.4968 942.209 27.4968 938.358 Q27.4968 934.475 29.4702 931.769 Q31.4436 929.032 35.1993 927.727 Z" fill="#000000" fill-rule="evenodd" fill-opacity="1" /><path clip-path="url(#clip350)" d="M46.212 866.393 Q39.7508 866.393 36.0905 869.067 Q32.3984 871.709 32.3984 876.356 Q32.3984 881.003 36.0905 883.676 Q39.7508 886.318 46.212 886.318 Q52.6732 886.318 56.3653 883.676 Q60.0256 881.003 60.0256 876.356 Q60.0256 871.709 56.3653 869.067 Q52.6732 866.393 46.212 866.393 M33.7671 886.318 Q30.5842 884.472 29.0564 881.671 Q27.4968 878.838 27.4968 874.923 Q27.4968 868.43 32.6531 864.388 Q37.8093 860.314 46.212 860.314 Q54.6147 860.314 59.771 864.388 Q64.9272 868.43 64.9272 874.923 Q64.9272 878.838 63.3994 881.671 Q61.8398 884.472 58.657 886.318 L64.0042 886.318 L64.0042 892.206 L14.479 892.206 L14.479 886.318 L33.7671 886.318 Z" fill="#000000" fill-rule="evenodd" fill-opacity="1" /><path clip-path="url(#clip350)" d="M44.7161 820.115 L47.5806 820.115 L47.5806 847.042 Q53.6281 846.66 56.8109 843.413 Q59.9619 840.135 59.9619 834.31 Q59.9619 830.936 59.1344 827.785 Q58.3069 824.602 56.6518 821.483 L62.1899 821.483 Q63.5267 824.634 64.227 827.944 Q64.9272 831.255 64.9272 834.66 Q64.9272 843.19 59.9619 848.187 Q54.9967 853.153 46.5303 853.153 Q37.7774 853.153 32.6531 848.442 Q27.4968 843.7 27.4968 835.679 Q27.4968 828.485 32.1438 824.316 Q36.7589 820.115 44.7161 820.115 M42.9973 825.971 Q38.1912 826.035 35.3266 828.676 Q32.4621 831.286 32.4621 835.615 Q32.4621 840.517 35.2312 843.477 Q38.0002 846.405 43.0292 846.851 L42.9973 825.971 Z" fill="#000000" fill-rule="evenodd" fill-opacity="1" /><path clip-path="url(#clip350)" d="M33.8307 789.846 Q33.2578 790.832 33.0032 792.01 Q32.7167 793.156 32.7167 794.556 Q32.7167 799.522 35.9632 802.195 Q39.1779 804.837 45.2253 804.837 L64.0042 804.837 L64.0042 810.725 L28.3562 810.725 L28.3562 804.837 L33.8944 804.837 Q30.6479 802.991 29.0883 800.031 Q27.4968 797.071 27.4968 792.838 Q27.4968 792.233 27.5923 791.501 Q27.656 790.769 27.8151 789.877 L33.8307 789.846 Z" fill="#000000" fill-rule="evenodd" fill-opacity="1" /><path clip-path="url(#clip350)" d="M32.4621 749.169 Q32.4621 753.879 36.1542 756.617 Q39.8145 759.354 46.212 759.354 Q52.6095 759.354 56.3017 756.648 Q59.9619 753.911 59.9619 749.169 Q59.9619 744.49 56.2698 741.753 Q52.5777 739.015 46.212 739.015 Q39.8781 739.015 36.186 741.753 Q32.4621 744.49 32.4621 749.169 M27.4968 749.169 Q27.4968 741.53 32.4621 737.169 Q37.4273 732.809 46.212 732.809 Q54.9649 732.809 59.9619 737.169 Q64.9272 741.53 64.9272 749.169 Q64.9272 756.839 59.9619 761.2 Q54.9649 765.529 46.212 765.529 Q37.4273 765.529 32.4621 761.2 Q27.4968 756.839 27.4968 749.169 Z" fill="#000000" fill-rule="evenodd" fill-opacity="1" /><path clip-path="url(#clip350)" d="M14.479 705.054 L19.3487 705.054 L19.3487 710.656 Q19.3487 713.807 20.6219 715.049 Q21.895 716.258 25.2052 716.258 L28.3562 716.258 L28.3562 706.614 L32.9077 706.614 L32.9077 716.258 L64.0042 716.258 L64.0042 722.146 L32.9077 722.146 L32.9077 727.748 L28.3562 727.748 L28.3562 722.146 L25.8736 722.146 Q19.9216 722.146 17.2162 719.377 Q14.479 716.608 14.479 710.593 L14.479 705.054 Z" fill="#000000" fill-rule="evenodd" fill-opacity="1" /><path clip-path="url(#clip350)" d="M49.9359 680.037 L28.3562 680.037 L28.3562 674.181 L49.7131 674.181 Q54.7739 674.181 57.3202 672.207 Q59.8346 670.234 59.8346 666.287 Q59.8346 661.545 56.8109 658.808 Q53.7872 656.038 48.5673 656.038 L28.3562 656.038 L28.3562 650.182 L64.0042 650.182 L64.0042 656.038 L58.5296 656.038 Q61.7762 658.171 63.3676 661.004 Q64.9272 663.805 64.9272 667.529 Q64.9272 673.671 61.1078 676.854 Q57.2883 680.037 49.9359 680.037 M27.4968 665.301 L27.4968 665.301 Z" fill="#000000" fill-rule="evenodd" fill-opacity="1" /><path clip-path="url(#clip350)" d="M58.657 632.454 L77.5631 632.454 L77.5631 638.342 L28.3562 638.342 L28.3562 632.454 L33.7671 632.454 Q30.5842 630.607 29.0564 627.807 Q27.4968 624.974 27.4968 621.059 Q27.4968 614.566 32.6531 610.524 Q37.8093 606.45 46.212 606.45 Q54.6147 606.45 59.771 610.524 Q64.9272 614.566 64.9272 621.059 Q64.9272 624.974 63.3994 627.807 Q61.8398 630.607 58.657 632.454 M46.212 612.529 Q39.7508 612.529 36.0905 615.202 Q32.3984 617.844 32.3984 622.491 Q32.3984 627.138 36.0905 629.812 Q39.7508 632.454 46.212 632.454 Q52.6732 632.454 56.3653 629.812 Q60.0256 627.138 60.0256 622.491 Q60.0256 617.844 56.3653 615.202 Q52.6732 612.529 46.212 612.529 Z" fill="#000000" fill-rule="evenodd" fill-opacity="1" /><path clip-path="url(#clip350)" d="M33.7671 573.284 L14.479 573.284 L14.479 567.428 L64.0042 567.428 L64.0042 573.284 L58.657 573.284 Q61.8398 575.13 63.3994 577.963 Q64.9272 580.764 64.9272 584.711 Q64.9272 591.172 59.771 595.246 Q54.6147 599.288 46.212 599.288 Q37.8093 599.288 32.6531 595.246 Q27.4968 591.172 27.4968 584.711 Q27.4968 580.764 29.0564 577.963 Q30.5842 575.13 33.7671 573.284 M46.212 593.241 Q52.6732 593.241 56.3653 590.599 Q60.0256 587.925 60.0256 583.278 Q60.0256 578.631 56.3653 575.958 Q52.6732 573.284 46.212 573.284 Q39.7508 573.284 36.0905 575.958 Q32.3984 578.631 32.3984 583.278 Q32.3984 587.925 36.0905 590.599 Q39.7508 593.241 46.212 593.241 Z" fill="#000000" fill-rule="evenodd" fill-opacity="1" /><path clip-path="url(#clip350)" d="M46.0847 539.164 Q46.0847 546.262 47.7079 548.999 Q49.3312 551.736 53.2461 551.736 Q56.3653 551.736 58.2114 549.699 Q60.0256 547.631 60.0256 544.098 Q60.0256 539.228 56.5881 536.3 Q53.1188 533.339 47.3897 533.339 L46.0847 533.339 L46.0847 539.164 M43.6657 527.483 L64.0042 527.483 L64.0042 533.339 L58.5933 533.339 Q61.8398 535.345 63.3994 538.337 Q64.9272 541.328 64.9272 545.657 Q64.9272 551.132 61.8716 554.378 Q58.7843 557.593 53.6281 557.593 Q47.6125 557.593 44.5569 553.582 Q41.5014 549.54 41.5014 541.551 L41.5014 533.339 L40.9285 533.339 Q36.8862 533.339 34.6901 536.013 Q32.4621 538.655 32.4621 543.461 Q32.4621 546.517 33.1941 549.413 Q33.9262 552.309 35.3903 554.983 L29.9795 554.983 Q28.7381 551.768 28.1334 548.745 Q27.4968 545.721 27.4968 542.856 Q27.4968 535.122 31.5072 531.302 Q35.5176 527.483 43.6657 527.483 Z" fill="#000000" fill-rule="evenodd" fill-opacity="1" /><path clip-path="url(#clip350)" d="M18.2347 509.627 L28.3562 509.627 L28.3562 497.564 L32.9077 497.564 L32.9077 509.627 L52.2594 509.627 Q56.6199 509.627 57.8613 508.45 Q59.1026 507.24 59.1026 503.58 L59.1026 497.564 L64.0042 497.564 L64.0042 503.58 Q64.0042 510.359 61.4897 512.937 Q58.9434 515.516 52.2594 515.516 L32.9077 515.516 L32.9077 519.812 L28.3562 519.812 L28.3562 515.516 L18.2347 515.516 L18.2347 509.627 Z" fill="#000000" fill-rule="evenodd" fill-opacity="1" /><path clip-path="url(#clip350)" d="M44.7161 459.37 L47.5806 459.37 L47.5806 486.297 Q53.6281 485.915 56.8109 482.668 Q59.9619 479.39 59.9619 473.566 Q59.9619 470.192 59.1344 467.041 Q58.3069 463.858 56.6518 460.739 L62.1899 460.739 Q63.5267 463.89 64.227 467.2 Q64.9272 470.51 64.9272 473.916 Q64.9272 482.446 59.9619 487.443 Q54.9967 492.408 46.5303 492.408 Q37.7774 492.408 32.6531 487.697 Q27.4968 482.955 27.4968 474.934 Q27.4968 467.741 32.1438 463.571 Q36.7589 459.37 44.7161 459.37 M42.9973 465.226 Q38.1912 465.29 35.3266 467.932 Q32.4621 470.542 32.4621 474.87 Q32.4621 479.772 35.2312 482.732 Q38.0002 485.66 43.0292 486.106 L42.9973 465.226 Z" fill="#000000" fill-rule="evenodd" fill-opacity="1" /><path clip-path="url(#clip350)" d="M29.4065 427.032 L34.9447 427.032 Q33.6716 429.515 33.035 432.188 Q32.3984 434.862 32.3984 437.727 Q32.3984 442.087 33.7352 444.283 Q35.072 446.448 37.7456 446.448 Q39.7826 446.448 40.9603 444.888 Q42.1061 443.328 43.1565 438.618 L43.6021 436.613 Q44.9389 430.374 47.3897 427.764 Q49.8086 425.122 54.1691 425.122 Q59.1344 425.122 62.0308 429.069 Q64.9272 432.984 64.9272 439.859 Q64.9272 442.724 64.3543 445.843 Q63.8132 448.93 62.6992 452.368 L56.6518 452.368 Q58.3387 449.121 59.198 445.97 Q60.0256 442.819 60.0256 439.732 Q60.0256 435.594 58.6251 433.366 Q57.1929 431.138 54.6147 431.138 Q52.2276 431.138 50.9545 432.761 Q49.6813 434.353 48.5037 439.795 L48.0262 441.832 Q46.8804 447.275 44.5251 449.694 Q42.138 452.113 38.0002 452.113 Q32.9713 452.113 30.2341 448.548 Q27.4968 444.983 27.4968 438.427 Q27.4968 435.18 27.9743 432.316 Q28.4517 429.451 29.4065 427.032 Z" fill="#000000" fill-rule="evenodd" fill-opacity="1" /><polyline clip-path="url(#clip352)" style="stroke:#009af9; stroke-linecap:butt; stroke-linejoin:round; stroke-width:4; stroke-opacity:1; fill:none" points="
  279.759,86.1857 503.383,86.1857 727.007,735.212 950.632,1384.24 1174.26,1384.24 1397.88,1384.24 1621.5,1384.24 1845.13,1384.24 2068.75,1384.24 2292.38,1384.24 
  
  "/>
<circle clip-path="url(#clip352)" cx="279.759" cy="86.1857" r="14" fill="#009af9" fill-rule="evenodd" fill-opacity="1" stroke="#000000" stroke-opacity="1" stroke-width="3.2"/>
<circle clip-path="url(#clip352)" cx="503.383" cy="86.1857" r="14" fill="#009af9" fill-rule="evenodd" fill-opacity="1" stroke="#000000" stroke-opacity="1" stroke-width="3.2"/>
<circle clip-path="url(#clip352)" cx="727.007" cy="735.212" r="14" fill="#009af9" fill-rule="evenodd" fill-opacity="1" stroke="#000000" stroke-opacity="1" stroke-width="3.2"/>
<circle clip-path="url(#clip352)" cx="950.632" cy="1384.24" r="14" fill="#009af9" fill-rule="evenodd" fill-opacity="1" stroke="#000000" stroke-opacity="1" stroke-width="3.2"/>
<circle clip-path="url(#clip352)" cx="1174.26" cy="1384.24" r="14" fill="#009af9" fill-rule="evenodd" fill-opacity="1" stroke="#000000" stroke-opacity="1" stroke-width="3.2"/>
<circle clip-path="url(#clip352)" cx="1397.88" cy="1384.24" r="14" fill="#009af9" fill-rule="evenodd" fill-opacity="1" stroke="#000000" stroke-opacity="1" stroke-width="3.2"/>
<circle clip-path="url(#clip352)" cx="1621.5" cy="1384.24" r="14" fill="#009af9" fill-rule="evenodd" fill-opacity="1" stroke="#000000" stroke-opacity="1" stroke-width="3.2"/>
<circle clip-path="url(#clip352)" cx="1845.13" cy="1384.24" r="14" fill="#009af9" fill-rule="evenodd" fill-opacity="1" stroke="#000000" stroke-opacity="1" stroke-width="3.2"/>
<circle clip-path="url(#clip352)" cx="2068.75" cy="1384.24" r="14" fill="#009af9" fill-rule="evenodd" fill-opacity="1" stroke="#000000" stroke-opacity="1" stroke-width="3.2"/>
<circle clip-path="url(#clip352)" cx="2292.38" cy="1384.24" r="14" fill="#009af9" fill-rule="evenodd" fill-opacity="1" stroke="#000000" stroke-opacity="1" stroke-width="3.2"/>
</svg>
